<svg width="300" height="300" viewBox="0 0 300 300" fill="none" xmlns="http://www.w3.org/2000/svg">
<g clip-path="url(#clip0_5_82)">
<path d="M22.7764 87.4278H69.1228C71.5498 87.4278 73.5174 85.4608 73.5174 83.0332C73.5174 80.6056 71.5498 78.6386 69.1228 78.6386H22.7764C20.3494 78.6386 18.3818 80.6056 18.3818 83.0332C18.3818 85.4608 20.3488 87.4278 22.7764 87.4278Z" fill="#4285F4"/>
<path d="M67.5338 108.584H49.2256C46.7986 108.584 44.831 110.551 44.831 112.979C44.831 115.406 46.7986 117.373 49.2256 117.373H67.5338C69.9608 117.373 71.9284 115.406 71.9284 112.979C71.9284 110.551 69.9608 108.584 67.5338 108.584Z" fill="#4285F4"/>
<path d="M4.39454 139.059H49.2258C51.6528 139.059 53.6204 137.092 53.6204 134.664C53.6204 132.237 51.6528 130.27 49.2258 130.27H4.39454C1.96758 130.27 0 132.237 0 134.664C0 137.092 1.96758 139.059 4.39454 139.059Z" fill="#4285F4"/>
<path d="M73.5174 216.966C73.5174 214.538 71.5498 212.572 69.1228 212.572H22.7764C20.3494 212.572 18.3818 214.538 18.3818 216.966C18.3818 219.394 20.3494 221.36 22.7764 221.36H69.1228C71.5498 221.36 73.5174 219.394 73.5174 216.966Z" fill="#4285F4"/>
<path d="M67.5338 182.626H49.2256C46.7986 182.626 44.831 184.593 44.831 187.021C44.831 189.448 46.7986 191.415 49.2256 191.415H67.5338C69.9608 191.415 71.9284 189.448 71.9284 187.021C71.9284 184.593 69.9608 182.626 67.5338 182.626Z" fill="#4285F4"/>
<path d="M53.6204 165.335C53.6204 162.907 51.6528 160.94 49.2258 160.94H4.39454C1.96758 160.94 0 162.907 0 165.335C0 167.763 1.96758 169.729 4.39454 169.729H49.2258C51.6528 169.729 53.6204 167.763 53.6204 165.335Z" fill="#4285F4"/>
<path d="M187.224 97.1658C189.652 97.1658 191.619 95.1988 191.619 92.7712V86.0634C191.619 83.636 189.652 81.669 187.224 81.669C184.797 81.669 182.83 83.636 182.83 86.0634V92.7712C182.83 95.1988 184.797 97.1658 187.224 97.1658Z" fill="#4285F4"/>
<path d="M235.542 101.682C233.824 99.9666 231.042 99.9666 229.326 101.682L224.584 106.425C222.866 108.142 222.866 110.924 224.584 112.64C226.3 114.357 229.082 114.356 230.798 112.64L235.542 107.897C237.256 106.181 237.256 103.399 235.542 101.682Z" fill="#4285F4"/>
<path d="M244.452 145.605C242.026 145.605 240.058 147.572 240.058 150C240.058 152.428 242.026 154.395 244.452 154.395H251.16C253.588 154.395 255.554 152.428 255.554 150C255.554 147.572 253.588 145.605 251.16 145.605H244.452Z" fill="#4285F4"/>
<path d="M230.798 187.358C229.082 185.642 226.3 185.642 224.584 187.358C222.866 189.075 222.866 191.857 224.584 193.573L229.326 198.316C231.044 200.032 233.826 200.032 235.542 198.316C237.258 196.599 237.258 193.817 235.542 192.101L230.798 187.358Z" fill="#4285F4"/>
<path d="M182.83 207.228V213.936C182.83 216.364 184.797 218.33 187.224 218.33C189.652 218.33 191.619 216.364 191.619 213.936V207.228C191.619 204.8 189.652 202.834 187.224 202.834C184.797 202.834 182.83 204.802 182.83 207.228Z" fill="#4285F4"/>
<path d="M143.649 187.358L138.906 192.101C137.19 193.818 137.19 196.6 138.906 198.316C140.623 200.032 143.405 200.032 145.121 198.316L149.864 193.573C151.58 191.856 151.58 189.074 149.864 187.358C148.148 185.642 145.366 185.642 143.649 187.358Z" fill="#4285F4"/>
<path d="M123.288 145.605C120.861 145.605 118.893 147.572 118.893 150C118.893 152.428 120.861 154.395 123.288 154.395H129.995C132.422 154.395 134.39 152.428 134.39 150C134.39 147.572 132.422 145.605 129.995 145.605H123.288Z" fill="#4285F4"/>
<path d="M149.864 106.425L145.121 101.682C143.405 99.9666 140.622 99.9666 138.907 101.682C137.191 103.399 137.191 106.181 138.907 107.897L143.65 112.64C145.367 114.357 148.149 114.356 149.864 112.64C151.581 110.924 151.581 108.142 149.864 106.425Z" fill="#4285F4"/>
<path d="M210.854 149.999C210.854 147.572 208.888 145.605 206.46 145.605H191.619V112.978C191.619 110.55 189.652 108.583 187.224 108.583C184.797 108.583 182.83 110.55 182.83 112.978V149.999C182.83 152.427 184.797 154.394 187.224 154.394H206.46C208.888 154.394 210.854 152.427 210.854 149.999Z" fill="#4285F4"/>
<path d="M270.552 149.274C272.974 149.127 274.818 147.044 274.672 144.621C271.876 98.5064 233.464 62.3828 187.223 62.3828C138.912 62.3828 99.607 101.688 99.607 150C99.607 198.312 138.912 237.616 187.223 237.616C230.506 237.616 267.438 205.904 273.864 163.11C274.224 160.71 272.57 158.472 270.17 158.112C267.776 157.753 265.532 159.405 265.172 161.806C259.4 200.252 226.202 228.828 187.223 228.828C143.758 228.828 108.396 193.466 108.396 150C108.396 106.535 143.758 71.1724 187.223 71.1724C228.826 71.1724 263.384 103.669 265.898 145.155C266.044 147.576 268.126 149.414 270.552 149.274Z" fill="#4285F4"/>
<path d="M187.223 37.2236C171.766 37.2236 156.621 40.4304 142.682 46.4276H65.145C62.718 46.4276 60.7504 48.3946 60.7504 50.822C60.7504 53.2496 62.718 55.2166 65.145 55.2166H126.149C117.9 60.5252 110.307 66.9284 103.612 74.3206C101.983 76.1188 102.121 78.8978 103.919 80.5274C105.719 82.1568 108.497 82.0192 110.127 80.2204C129.816 58.4808 157.917 46.0126 187.223 46.0126C244.562 46.0126 291.21 92.661 291.21 150C291.21 207.338 244.562 253.986 187.223 253.986C129.885 253.986 83.2364 207.338 83.2364 150C83.2364 129.921 88.9722 110.432 99.8226 93.6406C101.14 91.6022 100.555 88.8822 98.5166 87.565C96.478 86.2484 93.7582 86.832 92.4404 88.871C80.6688 107.087 74.4474 128.224 74.4474 150C74.4474 189.706 95.0758 224.682 126.177 244.782H65.1456C62.7186 244.782 60.751 246.75 60.751 249.178C60.751 251.604 62.7186 253.572 65.1456 253.572H142.621C156.309 259.49 171.389 262.776 187.224 262.776C249.408 262.776 300 212.184 300 150C300 87.8146 249.408 37.2236 187.223 37.2236Z" fill="#4285F4"/>
</g>
<defs>
<clipPath id="clip0_5_82">
<rect width="300" height="300" fill="white"/>
</clipPath>
</defs>
</svg>
