<svg width="320" height="166" viewBox="0 0 320 166" fill="none" xmlns="http://www.w3.org/2000/svg">
<g clip-path="url(#clip0_5_102)">
<path d="M237.039 0.237976C217.485 0.237976 194.834 11.0432 167.796 33.2702C165.232 35.3782 162.626 37.5918 159.999 39.8904C157.374 37.5911 154.767 35.3782 152.203 33.2702C125.165 11.0426 102.516 0.237976 82.9613 0.237976C37.2162 0.237976 0 37.3653 0 83.0004C0 128.636 37.2162 165.762 82.9619 165.762C102.516 165.762 125.166 154.957 152.204 132.73C154.768 130.622 157.374 128.408 160.001 126.11C162.626 128.409 165.233 130.622 167.797 132.73C194.836 154.957 217.485 165.762 237.039 165.762C282.784 165.763 320 128.636 320 83.0004C320 37.3653 282.784 0.237976 237.039 0.237976ZM237.039 147.287C222.165 147.287 202.832 137.592 179.574 118.472C175.286 114.946 128.238 69.2441 124.467 66.1548C99.1925 45.4485 87.0212 43.2126 82.9619 43.2126C60.9694 43.2126 43.0782 61.0608 43.0782 83.0004C43.0782 104.94 60.97 122.788 82.9619 122.788C87.0507 122.788 99.3131 120.526 124.809 99.5662C126.308 98.3335 127.83 97.0472 129.361 95.7335L146.596 113.254C144.518 115.056 142.456 116.803 140.426 118.472C117.168 137.591 97.8338 147.287 82.9619 147.287C47.4287 147.287 18.5206 118.448 18.5206 83.0004C18.5206 47.5526 47.4287 18.7135 82.9619 18.7135C97.8338 18.7135 117.168 28.4081 140.426 47.529C144.714 51.0542 183.953 89.832 183.953 89.832C187.744 93.2763 191.524 96.5516 195.191 99.5662C220.687 120.526 232.949 122.788 237.039 122.788C259.031 122.788 276.922 104.94 276.922 83.0004C276.922 61.0608 259.031 43.2126 237.039 43.2126C232.979 43.2126 220.809 45.4478 195.533 66.1548C193.923 67.4741 192.286 68.8545 190.638 70.2699L173.404 52.7471C175.482 50.9452 177.544 49.1981 179.574 47.529C202.833 28.4088 222.167 18.7135 237.039 18.7135C272.572 18.7135 301.481 47.552 301.481 83.0004C301.481 118.448 272.572 147.287 237.039 147.287ZM115.796 83.0004C114.867 83.7866 113.945 84.5559 113.031 85.3074C93.0837 101.705 83.8526 104.047 82.5581 104.308C70.9632 104.094 61.5974 94.6175 61.5974 82.9998C61.5974 71.3821 70.9632 61.9063 82.5581 61.6911C83.8475 61.9518 92.9882 64.2718 112.713 80.4317C113.731 81.267 114.759 82.1232 115.796 83.0004ZM204.204 83.0004C205.241 82.1238 206.269 81.2664 207.287 80.4321C227.012 64.2724 236.151 61.9525 237.442 61.6918C249.037 61.9063 258.402 71.3834 258.402 83.0004C258.402 94.6174 249.037 104.094 237.442 104.309C236.147 104.047 226.916 101.705 206.969 85.308C206.055 84.5566 205.133 83.7866 204.204 83.0004Z" fill="#ED6357"/>
</g>
<defs>
<clipPath id="clip0_5_102">
<rect width="320" height="166" fill="white"/>
</clipPath>
</defs>
</svg>
