<svg width="280" height="280" viewBox="0 0 280 280" fill="none" xmlns="http://www.w3.org/2000/svg">
<g clip-path="url(#clip0_5_104)">
<mask id="mask0_5_104" style="mask-type:luminance" maskUnits="userSpaceOnUse" x="0" y="0" width="280" height="280">
<path d="M280 0H0V280H280V0Z" fill="white"/>
</mask>
<g mask="url(#mask0_5_104)">
<path d="M258.94 75.9701L258.931 75.7521C258.808 73.0626 258.726 70.2171 258.679 67.0514C258.449 51.6129 246.176 38.8425 230.737 37.9794C198.543 36.1829 173.639 25.6855 152.36 4.94486L152.179 4.77182C145.238 -1.59199 134.769 -1.59199 127.826 4.77182L127.644 4.94486C106.365 25.6855 81.4611 36.1829 49.2682 37.9816C33.8298 38.8425 21.5551 51.6128 21.3264 67.0536C21.2794 70.198 21.1961 73.0434 21.0744 75.7521L21.0615 76.2585C20.4356 109.086 19.6581 149.941 33.3256 187.024C40.8408 207.416 52.2226 225.142 67.1526 239.714C84.157 256.308 106.429 269.483 133.35 278.869C134.226 279.175 135.136 279.423 136.063 279.608C137.37 279.869 138.686 279.998 140.002 279.998C141.318 279.998 142.636 279.869 143.941 279.608C144.869 279.423 145.785 279.173 146.665 278.865C173.554 269.461 195.803 256.28 212.792 239.689C227.715 225.114 239.098 207.382 246.62 186.985C260.338 149.792 259.562 108.859 258.94 75.9701ZM231.205 181.301C216.789 220.386 187.362 247.227 141.243 263.355C141.079 263.411 140.904 263.461 140.722 263.497C140.246 263.59 139.761 263.59 139.278 263.495C139.099 263.458 138.924 263.411 138.761 263.355C92.593 247.257 63.1474 220.431 48.7426 181.344C36.1454 147.162 36.859 109.658 37.489 76.5725L37.4933 76.3888C37.6215 73.5455 37.707 70.5676 37.7539 67.2948C37.8565 60.4397 43.3167 54.768 50.1846 54.3857C68.4025 53.3689 84.4071 49.8482 99.1127 43.6234C113.799 37.4069 126.843 28.6442 138.985 16.8351C139.603 16.3139 140.404 16.3117 141.019 16.8351C153.163 28.6442 166.207 37.4069 180.892 43.6234C195.597 49.8482 211.602 53.3689 229.822 54.3857C236.69 54.768 242.15 60.4397 242.25 67.2969C242.299 70.5867 242.385 73.5646 242.512 76.3888C243.141 109.513 243.837 147.047 231.205 181.301Z" fill="#34A853"/>
<path d="M139.998 70.224C101.52 70.224 70.2182 101.528 70.2182 140.004C70.2182 178.482 101.52 209.786 139.998 209.786C178.474 209.786 209.778 178.482 209.778 140.004C209.778 101.528 178.474 70.224 139.998 70.224ZM139.998 193.354C110.58 193.354 86.648 169.422 86.648 140.004C86.648 110.586 110.58 86.6538 139.998 86.6538C169.414 86.6538 193.346 110.586 193.346 140.004C193.346 169.422 169.414 193.354 139.998 193.354Z" fill="#34A853"/>
<path d="M160.053 118.34L127.643 150.751L118.846 141.954C115.637 138.746 110.435 138.746 107.227 141.954C104.02 145.163 104.02 150.365 107.227 153.571L121.834 168.179C123.438 169.783 125.541 170.584 127.643 170.584C129.745 170.584 131.847 169.783 133.451 168.179L171.672 129.957C174.879 126.748 174.879 121.547 171.672 118.34C168.464 115.13 163.262 115.13 160.053 118.34Z" fill="#34A853"/>
</g>
</g>
<defs>
<clipPath id="clip0_5_104">
<rect width="280" height="280" fill="white"/>
</clipPath>
</defs>
</svg>
