<svg xmlns="http://www.w3.org/2000/svg" xmlns:xlink="http://www.w3.org/1999/xlink" viewBox="0,0,256,256" width="48px" height="48px" fill-rule="nonzero"><g fill="none" fill-rule="nonzero" stroke="none" stroke-width="1" stroke-linecap="butt" stroke-linejoin="miter" stroke-miterlimit="10" stroke-dasharray="" stroke-dashoffset="0" font-family="none" font-weight="none" font-size="none" text-anchor="none" style="mix-blend-mode: normal"><g transform="scale(5.33333,5.33333)"><circle cx="24" cy="24" r="20" fill="#ff5644"></circle><path d="M42,27v5.73c-3.24,6.67 -10.08,11.27 -18,11.27c-11.05,0 -20,-8.95 -20,-20c0,-2.09 0.32,-4.1 0.92,-6h28.08c4.97,0 9,4.03 9,9z" fill="#ff4533"></path><path d="M19.947,28.217c-0.458,0.644 -0.835,0.965 -1.643,0.965c-0.744,0 -1.313,-0.247 -1.704,-0.743c-0.391,-0.495 -0.592,-1.219 -0.6,-2.175v-5.264h2l-0.01,5.197c0,0.837 0.194,1.256 0.853,1.256c0.629,0 0.922,-0.253 1.158,-0.758l-0.001,-5.695h2v8.034h-2.002z" fill="#ffffff"></path><path d="M27.978,23.119c-0.225,-0.038 -0.673,-0.058 -0.844,-0.058c-0.626,0 -1.036,0.269 -1.231,0.808l0.097,5.131h-2v-8h1.811l0.046,1.086c0.332,-0.724 0.792,-1.086 1.379,-1.086c0.183,0 0.604,0.032 0.764,0.095z" fill="#ffffff"></path><path d="M32,29.004h-2v-11.004h2z" fill="#ffffff"></path><path d="M9.386,29l-1.386,-1.502l3.228,-3.498l-3.228,-3.498l1.386,-1.502l4.614,5z" fill="#ffffff"></path><path d="M38.614,29l-4.614,-5l4.614,-5l1.386,1.502l-3.228,3.498l3.228,3.498z" fill="#ffffff"></path></g></g></svg>